HIERARCHY
ROOT Hips
{
	OFFSET -3.958830 18.904000 13.208200
	CHANNELS 6 Xposition Yposition Zposition Zrotation Yrotation Xrotation 
	JOINT LHipJoint
	{
		OFFSET 0.000000 0.000000 0.000000
		CHANNELS 3 Zrotation Yrotation Xrotation
		JOINT LeftUpLeg
		{
			OFFSET 1.800000 -1.400000 0.085000
			CHANNELS 3 Zrotation Yrotation Xrotation
			JOINT LeftLeg
			{
				OFFSET 2.215000 -6.000000 0.000000
				CHANNELS 3 Zrotation Yrotation Xrotation
				JOINT LeftFoot
				{
					OFFSET 2.500000 -6.900000 0.000000
					CHANNELS 3 Zrotation Yrotation Xrotation
					JOINT LeftToeBase
					{
						OFFSET 0.200000 -0.500000 1.950000
						CHANNELS 3 Zrotation Yrotation Xrotation
						End Site
						{
							OFFSET 0.000000 0.000000 0.000000
						}
					}
				}
			}
		}
	}
	JOINT RHipJoint
	{
		OFFSET 0.000000 0.000000 0.000000
		CHANNELS 3 Zrotation Yrotation Xrotation
		JOINT RightUpLeg
		{
			OFFSET -1.800000 -1.400000 0.085000
			CHANNELS 3 Zrotation Yrotation Xrotation
			JOINT RightLeg
			{
				OFFSET -2.215000 -6.000000 0.000000
				CHANNELS 3 Zrotation Yrotation Xrotation
				JOINT RightFoot
				{
					OFFSET -2.500000 -6.900000 0.000000
					CHANNELS 3 Zrotation Yrotation Xrotation
					JOINT RightToeBase
					{
						OFFSET -0.200000 -0.500000 1.950000
						CHANNELS 3 Zrotation Yrotation Xrotation
						End Site
						{
							OFFSET 0.000000 0.000000 0.000000
						}
					}
				}
			}
		}
	}
	JOINT LowerBack
	{
		OFFSET 0.000000 0.000000 0.000000
		CHANNELS 3 Zrotation Yrotation Xrotation
		JOINT Spine
		{
			OFFSET -0.087000 1.940000 -0.288900
			CHANNELS 3 Zrotation Yrotation Xrotation
			JOINT Spine1
			{
				OFFSET 0.000000 1.950000 0.060000
				CHANNELS 3 Zrotation Yrotation Xrotation
				JOINT Neck
				{
					OFFSET 0.000000 0.000000 0.000000
					CHANNELS 3 Zrotation Yrotation Xrotation
					JOINT Neck1
					{
						OFFSET 0.000000 1.600000 0.340000
						CHANNELS 3 Zrotation Yrotation Xrotation
						JOINT Head
						{
							OFFSET 0.000000 1.667000 -0.240000
							CHANNELS 3 Zrotation Yrotation Xrotation
							End Site
							{
								OFFSET 0.000000 0.000000 0.000000
							}
						}
					}
				}
				JOINT LeftShoulder
				{
					OFFSET 0.000000 0.000000 0.000000
					CHANNELS 3 Zrotation Yrotation Xrotation
					JOINT LeftArm
					{
						OFFSET 2.700000 1.550000 -0.730000
						CHANNELS 3 Zrotation Yrotation Xrotation
						JOINT LeftForeArm
						{
							OFFSET 5.450000 0.000000 0.000000
							CHANNELS 3 Zrotation Yrotation Xrotation
							JOINT LeftHand
							{
								OFFSET 3.450000 0.000000 0.000000
								CHANNELS 3 Zrotation Yrotation Xrotation
								JOINT LeftHandIndex1
								{
									OFFSET 0.750000 0.000000 0.000000
									CHANNELS 3 Zrotation Yrotation Xrotation
									End Site
									{
										OFFSET 0.000000 0.000000 0.000000
									}
								}
							}
						}
					}
				}
				JOINT RightShoulder
				{
					OFFSET 0.000000 0.000000 0.000000
					CHANNELS 3 Zrotation Yrotation Xrotation
					JOINT RightArm
					{
						OFFSET -2.700000 1.550000 -0.730000
						CHANNELS 3 Zrotation Yrotation Xrotation
						JOINT RightForeArm
						{
							OFFSET -5.450000 0.000000 0.000000
							CHANNELS 3 Zrotation Yrotation Xrotation
							JOINT RightHand
							{
								OFFSET -3.450000 0.000000 0.000000
								CHANNELS 3 Zrotation Yrotation Xrotation
								JOINT RightHandIndex1
								{
									OFFSET -0.750000 0.000000 0.000000
									CHANNELS 3 Zrotation Yrotation Xrotation
									End Site
									{
										OFFSET 0.000000 0.000000 0.000000
									}
								}
							}
						}
					}
				}
			}
		}
	}
}
MOTION
Frames: 7
Frame Time: 0.016667
1.471020 16.882170 -0.896480 0.839962 5.955797 7.090255 -15.344227 12.824965 3.198979 0.646102 -0.786153 6.832983 -19.884212 8.655287 6.661206 0.344413 6.865261 2.786854 0.121480 -0.455790 0.087230 18.549116 -8.534926 3.519166 14.279847 4.975753 -25.155531 8.930111 -1.729012 -5.087476 0.238624 -1.948258 4.129947 -0.176220 0.839550 0.271360 -3.788906 -4.404653 -7.719049 16.744951 -8.186732 8.359908 -9.552437 -7.193610 11.620453 -1.834806 -5.407716 -13.090827 -14.901491 5.104576 30.588014 -2.652010 2.909810 9.286020 7.360302 -5.855444 5.868344 -15.625325 -22.766464 1.537478 81.542984 -55.587701 -47.360714 -3.910723 2.173914 0.305910 0.560360 -0.477310 0.368380 -4.160882 3.940093 7.789219 50.198265 -11.092803 -12.234047 30.276601 20.217257 1.161994 1.809348 -1.628691 -0.397790 0.257320 0.060450 -0.147640 
1.490750 16.897860 -0.872970 0.545585 5.072186 6.064165 -15.298830 12.819967 3.228198 0.895213 -0.799190 7.401262 -20.067159 8.843476 7.197076 0.362482 6.922979 2.734695 0.169690 -0.411250 0.142940 18.575712 -8.624976 3.535546 14.705000 4.912016 -24.242445 8.187539 -1.880016 -4.132165 0.185034 -1.925859 4.103883 -0.174220 0.759850 0.297030 -3.889582 -4.260186 -7.802773 17.342411 -8.224314 10.385661 -9.515486 -7.000910 11.091661 -1.796671 -5.500840 -13.239572 -15.338623 5.085281 31.137740 -3.368570 3.306170 7.650510 6.509850 -6.521435 5.775843 -13.416997 -21.426706 0.567658 81.242229 -56.122901 -47.175009 -3.855250 2.166822 0.360500 0.507290 -0.406460 0.359340 -3.333597 4.703118 8.005930 49.543864 -11.374300 -12.491504 29.699656 20.723960 1.183522 1.828459 -1.613408 -0.362810 0.224590 0.036190 -0.165550 
1.511600 16.917870 -0.813200 0.827752 2.955770 3.749923 -15.275499 12.889742 3.354399 0.931091 -0.794061 8.735551 -20.914591 9.506672 8.917470 0.376162 7.200256 2.579464 0.244490 -0.342750 0.263110 18.549577 -8.782703 3.552466 15.198186 4.696321 -22.798978 6.488658 -2.268559 -0.891248 0.121447 -1.855218 4.074560 -0.151030 0.630780 0.316160 -3.873481 -4.170587 -8.020568 15.757085 -7.710608 15.595982 -7.706741 -6.240864 9.698411 -2.239729 -5.132038 -12.648130 -14.694511 4.259440 31.555141 -4.659230 3.583340 2.799190 6.565557 -5.847946 5.154565 -11.623408 -20.974218 -0.206561 79.529585 -56.927954 -46.208955 -3.782829 2.132638 0.462650 0.424030 -0.301900 0.308770 -2.442340 3.936341 7.429303 48.424579 -11.034828 -12.493362 29.365501 21.742556 1.506054 1.831061 -1.551164 -0.336470 0.218260 0.022070 -0.222230 
1.509590 16.938580 -0.736980 2.645709 1.993131 0.232707 -15.346546 13.181075 3.532746 0.356063 -0.844639 10.269048 -20.631694 10.555828 13.055052 0.467941 7.560310 2.391760 0.334050 -0.257500 0.395780 18.391412 -8.996543 3.474250 14.108754 3.901768 -21.236556 4.333784 -2.698719 3.641414 0.032712 -1.839090 4.020338 -0.147160 0.460990 0.352240 -3.527294 -4.412805 -8.248629 10.669273 -6.863629 22.446383 -4.685409 -5.541063 8.707796 -2.326278 -4.393912 -12.283906 -13.490899 2.955570 32.511578 -6.365480 3.812310 -2.170760 6.867057 -5.750955 4.547408 -10.252897 -19.517793 -1.963225 75.002430 -58.904671 -44.145962 -3.645485 2.149920 0.563050 0.315100 -0.163620 0.268240 -2.373873 4.003198 7.332851 48.770800 -10.569201 -13.259909 31.343367 23.443477 2.106020 1.842635 -1.548980 -0.270120 0.167610 -0.024570 -0.267650 
1.494800 16.914130 -0.617430 4.897744 2.817265 0.030399 -15.461086 13.422947 3.609273 0.152416 -2.460942 6.772819 -21.317168 12.329680 20.680677 0.532340 8.233818 2.126958 0.363510 -0.250450 0.436470 18.221073 -9.060615 3.349038 12.502908 3.816585 -23.662471 2.784788 -2.953461 9.312557 0.065288 -1.809623 3.992034 -0.128240 0.433070 0.361250 -3.118645 -4.831392 -8.254530 5.977858 -5.986714 23.101137 -2.096629 -5.314948 8.373118 -2.579641 -3.876948 -11.562413 -12.497431 2.409185 32.775396 -6.367660 3.666200 -2.607460 7.173378 -4.783544 3.332855 -10.488676 -20.011000 -2.256265 65.521401 -62.879409 -39.541483 -3.569968 2.260156 0.583650 0.306210 -0.164930 0.251130 -2.063788 3.371514 7.358646 49.190084 -10.801730 -13.447393 34.543297 24.606153 2.765628 1.811130 -1.613018 -0.275970 0.145550 -0.027190 -0.297750 
1.467830 16.909730 -0.517010 6.952948 4.050265 -1.929378 -15.587957 13.606288 3.820665 0.353477 -5.361245 3.192140 -21.642892 14.683975 30.731071 0.738766 9.466467 1.661098 0.378890 -0.225030 0.454500 18.040177 -9.123576 3.081696 9.635085 3.137113 -24.678230 3.220614 -3.873764 15.609835 -0.001172 -2.122022 3.844523 -0.117350 0.399620 0.358850 -2.682245 -5.327376 -8.280138 0.929491 -5.366867 26.033924 0.536044 -5.319613 9.018563 -2.924613 -3.759381 -11.381478 -12.878440 2.559030 34.116705 -5.318450 3.454670 -4.806210 7.552873 -5.211699 2.734746 -11.704182 -19.960911 -3.610347 52.842148 -66.508509 -34.021534 -3.539460 2.479601 0.635920 0.266750 -0.124700 0.224490 -1.650642 4.302487 7.690356 49.991566 -10.303476 -14.164445 38.213589 26.065694 3.511061 1.789546 -1.605350 -0.274590 0.167660 -0.007710 -0.312390 
1.449950 16.852720 -0.431310 7.868777 2.739829 -1.767286 -15.700234 13.314494 4.198575 1.755855 -9.405812 -3.898477 -24.720765 18.370806 40.274995 1.001230 11.271418 1.047446 0.334470 -0.307390 0.464710 17.949765 -8.895133 2.989344 8.468980 3.701365 -27.828582 3.887829 -5.031990 22.403167 -0.061920 -2.679386 3.620289 -0.116600 0.449680 0.338940 -2.360087 -5.504320 -8.455992 -1.687871 -4.151275 26.429070 2.434384 -4.206960 9.128227 -2.867013 -3.609235 -10.959332 -12.885498 2.385824 35.306191 -5.065740 3.324340 -5.267350 7.346905 -5.149717 1.746707 -13.869284 -21.711989 -3.094420 31.036640 -68.293723 -21.631709 -3.635643 2.826098 0.695220 0.287970 -0.155500 0.183720 -1.520367 5.013750 8.142130 50.565118 -9.907799 -14.284461 41.224484 27.145068 4.245169 1.741299 -1.559423 -0.362440 0.249420 0.062670 -0.359530 
